<svg width="16" height="16" viewBox="0 0 16 16" fill="none" xmlns="http://www.w3.org/2000/svg">
<g clip-path="url(#clip0_76913_2078)">
<path d="M14.5267 0.666748H1.47341C1.02675 0.666748 0.666748 1.02675 0.666748 1.47341V14.5201C0.666748 14.9734 1.02675 15.3334 1.47341 15.3334H8.50008V9.66008H6.60008V7.44008H8.50675V5.80675C8.50675 3.91341 9.66675 2.88008 11.3534 2.88008C11.9201 2.88008 12.4934 2.90675 13.0601 2.96675V4.94675H11.8934C10.9734 4.94675 10.7934 5.38008 10.7934 6.02675V7.44008H12.9934L12.7067 9.66008H10.7801V15.3334H14.5201C14.9667 15.3334 15.3267 14.9734 15.3267 14.5267V1.47341C15.3334 1.02675 14.9734 0.666748 14.5267 0.666748Z" fill="white"/>
</g>
<defs>
<clipPath id="clip0_76913_2078">
<rect width="16" height="16" fill="white"/>
</clipPath>
</defs>
</svg>
