<svg width="16" height="16" viewBox="0 0 16 16" fill="none" xmlns="http://www.w3.org/2000/svg">
<path d="M14.1001 1.90011C12.7001 0.49344 10.8201 0.666773 8.00011 0.666773C5.36011 0.666773 3.33344 0.460107 1.90011 1.90011C0.49344 3.30011 0.666773 5.18011 0.666773 8.00011C0.666773 10.6334 0.460107 12.6668 1.90011 14.1001C3.30011 15.5068 5.18011 15.3334 8.00011 15.3334C10.6401 15.3334 12.6668 15.5401 14.1001 14.1001C15.5001 12.7001 15.3334 10.8201 15.3334 8.00011C15.3334 5.12677 15.4934 3.28677 14.1001 1.90011ZM13.1668 13.1668C12.2534 14.0801 11.0468 14.0134 8.00011 14.0134C5.14011 14.0134 3.77344 14.1134 2.83344 13.1668C1.87344 12.2068 1.98677 10.8268 1.98677 8.00011C1.98677 5.18011 1.88677 3.78011 2.83344 2.83344C3.77344 1.89344 5.06677 1.98677 8.00011 1.98677C10.8201 1.98677 12.2201 1.88677 13.1668 2.83344C14.0868 3.75344 14.0134 4.98011 14.0134 8.00011C14.0134 10.8268 14.1134 12.2268 13.1668 13.1668Z" fill="white"/>
<path d="M8.00007 4.23345C7.00099 4.23354 6.04288 4.63051 5.33649 5.33702C4.6301 6.04353 4.23331 7.00172 4.2334 8.00079C4.23349 8.99986 4.63045 9.95797 5.33696 10.6644C6.04347 11.3707 7.00166 11.7675 8.00073 11.7675C8.9998 11.7674 9.95792 11.3704 10.6643 10.6639C11.3707 9.95738 11.7675 8.99919 11.7674 8.00012C11.7673 7.00105 11.3703 6.04293 10.6638 5.33655C9.95732 4.63016 8.99914 4.23337 8.00007 4.23345ZM8.00007 10.4468C6.6534 10.4468 5.5534 9.35345 5.5534 8.00012C5.5534 6.64679 6.64673 5.55345 8.00007 5.55345C9.3534 5.55345 10.4467 6.64679 10.4467 8.00012C10.4467 9.34679 9.34673 10.4468 8.00007 10.4468ZM11.9134 3.20679C11.4267 3.20679 11.0334 3.60012 11.0334 4.08679C11.0334 4.57345 11.4267 4.96679 11.9134 4.96679C12.4001 4.96679 12.7934 4.57345 12.7934 4.08679C12.7934 3.60012 12.4001 3.20679 11.9134 3.20679Z" fill="white"/>
</svg>
