<svg width="16" height="16" viewBox="0 0 16 16" fill="none" xmlns="http://www.w3.org/2000/svg">
<path d="M15.3334 8.00008C15.3334 8.00008 15.3334 5.43341 15.0267 4.28008C14.8601 3.64675 14.3601 3.14675 13.7334 2.97341C12.5867 2.66675 8.00008 2.66675 8.00008 2.66675C8.00008 2.66675 3.41341 2.66675 2.26675 2.97341C1.63341 3.14008 1.14008 3.64675 0.973415 4.28008C0.666748 5.43341 0.666748 8.00008 0.666748 8.00008C0.666748 8.00008 0.693415 10.5667 1.00008 11.7201C1.16675 12.3534 1.66675 12.8534 2.30008 13.0267C3.44008 13.3334 8.02675 13.3334 8.02675 13.3334C8.02675 13.3334 12.6134 13.3334 13.7601 13.0267C14.3934 12.8601 14.8867 12.3534 15.0534 11.7201C15.3601 10.5667 15.3334 8.00008 15.3334 8.00008ZM6.66675 10.1801V5.82008L10.3334 8.00008L6.66675 10.1801Z" fill="white"/>
</svg>
